<svg xmlns="http://www.w3.org/2000/svg" viewBox="0 0 93.655 84.891">
  <path fill="#e5e5e5" d="M93.655 0c0-.013-.245.254-.545.597-2.79 3.185-6.356 6.687-9.666 9.488-6.902 5.843-14.55 10.454-22.758 13.723-.959.38-2.809 1.07-3.175 1.18-.1.03-.103.002-.125-1.1-.036-1.712-.022-2.256.07-2.743.186-.987.617-2.007 1.242-2.94.196-.293 1.61-2.014 3.19-3.884l4.589-5.433a221.41 221.41 0 0 0 1.825-2.175c.058-.08-8.648 5.708-11.934 7.935-4.995 3.385-7.928 5.496-14.758 10.62-5.517 4.139-7.43 5.67-8.186 6.562-.363.427-.674 1.05-.713 1.43-.028.27-.04.294-.188.34-1.707.54-8.759 2.53-10.826 3.055l-.66.167-1.194 1.174c-2.842 2.795-4.74 4.302-6.528 5.186-2.01.993-3.354.978-4.37-.048-.903-.913-1.35-2.506-1.478-5.275l-.03-.648-.312.26C3.28 40.664.894 44.298.21 48.004c-.492 2.663-.119 5.234 1.113 7.673 1.007 1.994 2.422 3.67 4.406 5.22 1.345 1.05 3.266 2.163 4.926 2.853l.185.077-.122-.468c-.225-.87-.383-1.826-.402-2.428-.047-1.49.448-2.086 1.54-1.857.844.178 2.078.922 3.466 2.092.645.544 1.854 1.674 1.98 1.85.06.085.128.154.152.154.024 0 .094-.154.156-.343.452-1.385 1.267-2.957 2.122-4.092 1.828-2.427 4.3-3.79 7.63-4.21.783-.1 2.89-.084 3.81.027 3.836.46 7.9 1.804 12.649 4.18 3.883 1.945 7.697 4.323 10.693 6.667 3.668 2.87 7.383 6.664 10.261 10.478.14.185.26.332.265.327.023-.02-.597-2.374-.924-3.51a90.844 90.844 0 0 0-7.423-18.136c-.275-.508-.317-.51.537.017 7.552 4.66 13.813 11.664 18.171 20.33.344.685.626 1.225.626 1.2.001-.156-1.175-3.83-1.719-5.366-2.394-6.768-5.195-12.74-8.803-18.76-.499-.834-.907-1.53-.907-1.55 0-.02.6-.337 1.333-.706 3.618-1.82 6.649-3.59 9.893-5.776 3.36-2.264 5.546-4.017 9.967-7.992.467-.42 1.18-1.056 1.586-1.414.405-.36.73-.66.722-.668-.02-.02-7.254.61-8.922.776a237.59 237.59 0 0 0-6.248.733c-4.703.6-7.946.986-8.025.956-.023-.01.74-.773 1.696-1.7 9.413-9.12 17.865-19.672 24.997-31.21.858-1.386 2.058-3.385 2.058-3.426zM54.427 20.55l.029 1.51c.03 1.65.011 1.85-.227 2.303-.475.902-1.588 1.662-3.47 2.37a201.13 201.13 0 0 1-7.411 2.58c-.724.235-1.328.427-1.344.427-.06 0 .235-.225 3.675-2.802 3.946-2.957 7.06-5.235 8.514-6.228zm18.976.686-.077.15c-.133.257-1.41 2.146-1.96 2.9-.656.9-1.512 1.973-2.283 2.863-.729.842-2.604 2.753-3.474 3.54-3.703 3.35-8.096 6.139-14.266 9.053-.657.31-1.33.63-1.496.71l-.303.144.2.13c.111.07.67.42 1.242.776 5.584 3.474 8.607 6.266 11.787 10.885.713 1.035 1.11 1.678.978 1.583a25.665 25.665 0 0 1-.706-.585c-5.34-4.527-10.463-7.202-15.74-8.22-.727-.14-2.163-.35-2.193-.32-.01.01.12.104.29.21 1.513.933 3.411 2.727 5.108 4.827 2.488 3.08 5.172 7.585 6.504 10.918.121.306.216.56.209.565-.007.005-.408-.238-.892-.542-7.073-4.437-13.666-7.555-19.149-9.055-7.73-2.115-13.765-1.417-17.925 2.073a12.8 12.8 0 0 0-2.293 2.58l-.227.34-.388-.271c-1.616-1.127-3.206-1.926-4.46-2.243-1.015-.257-1.923-.174-2.557.233-.578.37-1.065 1.158-1.273 2.058l-.114.49-.429-.423c-1.956-1.931-3.2-4.237-3.493-6.477-.284-2.167.344-4.436 1.787-6.46l.23-.321.277.575c.695 1.44 1.654 2.499 2.756 3.044.7.345 1.397.479 2.302.44.727-.031 1.23-.127 1.97-.377 2.448-.825 5.5-3.09 8.73-6.48l.78-.82 3.08-.772c14.474-3.633 27.827-8.14 38.235-12.91 2.94-1.346 7.757-3.848 9.113-4.732zm3.06 17.166c.186-.034-.196.253-1.629 1.227-3.433 2.333-7.345 4.59-10.674 6.16-.537.254-.996.46-1.021.46-.047 0-.934-1.171-1.442-1.904-.723-1.043-1.426-2.347-1.687-3.131-.135-.404-.24-.907-.189-.908.017 0 .282-.033.59-.074a87.76 87.76 0 0 1 2.311-.23c2.808-.252 7.74-.807 9.728-1.095.084-.012.987-.125 2.007-.25s1.923-.24 2.007-.255zM38.748 60.196c-2.08.089-4.27.824-6.657 2.2-1.378.795-2.405 1.48-5.215 3.486-2.617 1.868-3.836 2.653-5.141 3.314-1.168.59-2.068.92-3.03 1.107-.574.112-1.826.124-2.337.022-.422-.084-1.263-.368-1.623-.55-.759-.38-1.576-1.008-2.334-1.791l-.504-.52.035.689c.09 1.8.429 3.65.972 5.313 2.189 6.697 7.489 10.952 14.17 11.38.337.02.738.04.892.045.265.006 1.787-.084 1.809-.108a6.77 6.77 0 0 0-.137-.57c-.659-2.51-.458-4.386.615-5.737.94-1.182 2.614-1.922 5.028-2.222.71-.09 3.553-.088 4.496 0 3.923.368 8.214 1.284 13.411 2.863a114.02 114.02 0 0 1 4.153 1.36c.3.107.546.188.546.18 0-.01-.184-.424-.41-.921-2.644-5.832-5.276-10.3-8.02-13.615-.734-.885-2.288-2.45-3.04-3.057-2.509-2.03-5.004-2.983-7.68-2.868zm.079 3.937c.475.012.941.058 1.304.135 2.813.6 5.518 2.69 8.291 6.407.697.934 2.211 3.203 2.211 3.312 0 .015-.452-.11-1.004-.275-2.07-.621-4.37-1.152-6.21-1.433-4.218-.643-7.999-.4-11.007.71-.66.243-1.91.858-2.48 1.219a12.908 12.908 0 0 0-3.815 3.738c-.336.508-1.063 1.877-1.179 2.217-.03.09-.074.163-.096.162-.087-.005-1.09-.406-1.768-.706-2.065-.914-3.934-2.15-5.336-3.532-.58-.572-1.425-1.538-1.382-1.58.01-.012.223.005.473.036 1.564.194 3.47-.23 5.407-1.2 1.513-.76 2.802-1.632 5.664-3.835 1.982-1.526 2.713-2.068 3.617-2.68 2.32-1.573 4.126-2.371 5.95-2.63.4-.057.885-.078 1.36-.065z"/>
  <path fill="#23defe" d="M29.773 44.627c-1.001-.158-1.987-.808-2.716-1.791-.296-.398-.631-.948-.599-.98.037-.034 11.592-2.67 11.614-2.647.007.007-.859.605-1.924 1.33-1.763 1.199-1.946 1.336-2.052 1.545-.598 1.167-1.788 2.165-2.934 2.46-.372.095-1.053.136-1.39.083z"/>
</svg>